<svg width="209" height="78" viewBox="0 0 209 78" fill="none" xmlns="http://www.w3.org/2000/svg">
<path d="M18.6667 49.9464C18.6667 50.6754 18.4478 51.3881 18.0375 51.9943C17.6273 52.6005 17.0442 53.0729 16.3621 53.3519C15.6799 53.6309 14.9292 53.7039 14.205 53.5617C13.4808 53.4194 12.8156 53.0684 12.2935 52.5529C11.7714 52.0374 11.4158 51.3806 11.2718 50.6655C11.1277 49.9505 11.2017 49.2094 11.4842 48.5358C11.7668 47.8623 12.2453 47.2866 12.8592 46.8815C13.4732 46.4765 14.195 46.2603 14.9334 46.2603C15.4237 46.2603 15.9091 46.3557 16.3621 46.5409C16.815 46.7261 17.2266 46.9977 17.5733 47.3399C17.9199 47.6822 18.1949 48.0886 18.3825 48.5358C18.5702 48.983 18.6667 49.4623 18.6667 49.9464ZM34.3468 46.2603C33.6084 46.2603 32.8866 46.4765 32.2726 46.8815C31.6587 47.2866 31.1802 47.8623 30.8976 48.5358C30.615 49.2094 30.5411 49.9505 30.6852 50.6655C30.8292 51.3806 31.1848 52.0374 31.7069 52.5529C32.229 53.0684 32.8942 53.4194 33.6184 53.5617C34.3426 53.7039 35.0933 53.6309 35.7755 53.3519C36.4576 53.0729 37.0407 52.6005 37.4509 51.9943C37.8612 51.3881 38.0801 50.6754 38.0801 49.9464C38.0801 49.4623 37.9836 48.983 37.7959 48.5358C37.6083 48.0886 37.3333 47.6822 36.9867 47.3399C36.64 46.9977 36.2284 46.7261 35.7755 46.5409C35.3225 46.3557 34.837 46.2603 34.3468 46.2603ZM43.5405 24.0141L39.0395 39.5686C38.7243 40.645 38.0641 41.5916 37.158 42.2664C36.252 42.9412 35.1488 43.3079 34.0139 43.3115H15.2662C14.1314 43.3079 13.0282 42.9412 12.1222 42.2664C11.2161 41.5917 10.556 40.6452 10.2406 39.5688L5.75205 24.0577C5.7433 24.0296 5.7351 24.0014 5.72744 23.9728L4.0704 18.2461H2.24001C1.64592 18.2461 1.07617 18.013 0.656083 17.5983C0.236 17.1835 0 16.621 0 16.0344C0 15.4478 0.236 14.8853 0.656083 14.4705C1.07617 14.0558 1.64592 13.8228 2.24001 13.8228H4.6335C5.44414 13.8253 6.2321 14.0872 6.87928 14.5692C7.52646 15.0512 7.99799 15.7273 8.2232 16.4962L9.58292 21.1949H41.3867C41.7334 21.1949 42.0754 21.2744 42.3857 21.427C42.696 21.5797 42.9662 21.8014 43.175 22.0747C43.3838 22.348 43.5255 22.6654 43.5889 23.0019C43.6523 23.3385 43.6358 23.685 43.5405 24.0141ZM38.4172 25.6182H10.863L14.5482 38.3534C14.5933 38.5072 14.6876 38.6424 14.817 38.7388C14.9465 38.8352 15.1041 38.8876 15.2662 38.8881H34.0139C34.1761 38.8876 34.3337 38.8352 34.4631 38.7388C34.5926 38.6424 34.6869 38.5071 34.732 38.3533L38.4172 25.6182Z" fill="#059669"/>
<path d="M61.685 50.315C58.745 50.315 56.045 49.625 53.585 48.245C51.125 46.865 49.175 44.96 47.735 42.53C46.295 40.07 45.575 37.295 45.575 34.205C45.575 31.145 46.295 28.4 47.735 25.97C49.175 23.51 51.125 21.59 53.585 20.21C56.045 18.83 58.745 18.14 61.685 18.14C64.655 18.14 67.355 18.83 69.785 20.21C72.245 21.59 74.18 23.51 75.59 25.97C77.03 28.4 77.75 31.145 77.75 34.205C77.75 37.295 77.03 40.07 75.59 42.53C74.18 44.96 72.245 46.865 69.785 48.245C67.325 49.625 64.625 50.315 61.685 50.315ZM61.685 44.69C63.575 44.69 65.24 44.27 66.68 43.43C68.12 42.56 69.245 41.33 70.055 39.74C70.865 38.15 71.27 36.305 71.27 34.205C71.27 32.105 70.865 30.275 70.055 28.715C69.245 27.125 68.12 25.91 66.68 25.07C65.24 24.23 63.575 23.81 61.685 23.81C59.795 23.81 58.115 24.23 56.645 25.07C55.205 25.91 54.08 27.125 53.27 28.715C52.46 30.275 52.055 32.105 52.055 34.205C52.055 36.305 52.46 38.15 53.27 39.74C54.08 41.33 55.205 42.56 56.645 43.43C58.115 44.27 59.795 44.69 61.685 44.69ZM92.832 44.195L99.132 25.07H105.837L96.612 50H88.962L79.782 25.07H86.532L92.832 44.195ZM132.551 36.995C132.551 37.895 132.491 38.705 132.371 39.425H114.146C114.296 41.225 114.926 42.635 116.036 43.655C117.146 44.675 118.511 45.185 120.131 45.185C122.471 45.185 124.136 44.18 125.126 42.17H131.921C131.201 44.57 129.821 46.55 127.781 48.11C125.741 49.64 123.236 50.405 120.266 50.405C117.866 50.405 115.706 49.88 113.786 48.83C111.896 47.75 110.411 46.235 109.331 44.285C108.281 42.335 107.756 40.085 107.756 37.535C107.756 34.955 108.281 32.69 109.331 30.74C110.381 28.79 111.851 27.29 113.741 26.24C115.631 25.19 117.806 24.665 120.266 24.665C122.636 24.665 124.751 25.175 126.611 26.195C128.501 27.215 129.956 28.67 130.976 30.56C132.026 32.42 132.551 34.565 132.551 36.995ZM126.026 35.195C125.996 33.575 125.411 32.285 124.271 31.325C123.131 30.335 121.736 29.84 120.086 29.84C118.526 29.84 117.206 30.32 116.126 31.28C115.076 32.21 114.431 33.515 114.191 35.195H126.026ZM150.964 24.71C153.934 24.71 156.334 25.655 158.164 27.545C159.994 29.405 160.909 32.015 160.909 35.375V50H154.609V36.23C154.609 34.25 154.114 32.735 153.124 31.685C152.134 30.605 150.784 30.065 149.074 30.065C147.334 30.065 145.954 30.605 144.934 31.685C143.944 32.735 143.449 34.25 143.449 36.23V50H137.149V25.07H143.449V28.175C144.289 27.095 145.354 26.255 146.644 25.655C147.964 25.025 149.404 24.71 150.964 24.71ZM165.28 37.445C165.28 34.925 165.775 32.69 166.765 30.74C167.785 28.79 169.165 27.29 170.905 26.24C172.645 25.19 174.58 24.665 176.71 24.665C178.33 24.665 179.875 25.025 181.345 25.745C182.815 26.435 183.985 27.365 184.855 28.535V16.7H191.245V50H184.855V46.31C184.075 47.54 182.98 48.53 181.57 49.28C180.16 50.03 178.525 50.405 176.665 50.405C174.565 50.405 172.645 49.865 170.905 48.785C169.165 47.705 167.785 46.19 166.765 44.24C165.775 42.26 165.28 39.995 165.28 37.445ZM184.9 37.535C184.9 36.005 184.6 34.7 184 33.62C183.4 32.51 182.59 31.67 181.57 31.1C180.55 30.5 179.455 30.2 178.285 30.2C177.115 30.2 176.035 30.485 175.045 31.055C174.055 31.625 173.245 32.465 172.615 33.575C172.015 34.655 171.715 35.945 171.715 37.445C171.715 38.945 172.015 40.265 172.615 41.405C173.245 42.515 174.055 43.37 175.045 43.97C176.065 44.57 177.145 44.87 178.285 44.87C179.455 44.87 180.55 44.585 181.57 44.015C182.59 43.415 183.4 42.575 184 41.495C184.6 40.385 184.9 39.065 184.9 37.535Z" fill="#059669"/>
<path d="M26 24.8246C30.5 20.2546 35 16.1624 35 11.1146C35 6.06677 30.9706 1.97467 26 1.97467C21.0294 1.97467 17 6.06677 17 11.1146C17 16.1624 21.5 20.2546 26 24.8246Z" fill="#059669" stroke="white" stroke-width="2.57143" stroke-linecap="round" stroke-linejoin="round"/>
<path d="M26 15.7975C28.7615 15.7975 31 13.5873 31 10.8608C31 8.13431 28.7615 5.92407 26 5.92407C23.2385 5.92407 21 8.13431 21 10.8608C21 13.5873 23.2385 15.7975 26 15.7975Z" fill="white" stroke="#059669" stroke-width="5" stroke-linecap="round" stroke-linejoin="round"/>
</svg>
