<svg width="44" height="53" viewBox="0 0 44 53" fill="none" xmlns="http://www.w3.org/2000/svg">
<path d="M18.6667 49.2575C18.6667 49.9865 18.4478 50.6992 18.0375 51.3054C17.6273 51.9116 17.0442 52.384 16.3621 52.663C15.6799 52.942 14.9292 53.015 14.205 52.8728C13.4808 52.7305 12.8156 52.3795 12.2935 51.864C11.7714 51.3485 11.4158 50.6917 11.2718 49.9766C11.1277 49.2616 11.2017 48.5204 11.4842 47.8469C11.7668 47.1734 12.2453 46.5977 12.8592 46.1926C13.4732 45.7876 14.195 45.5714 14.9334 45.5714C15.4237 45.5714 15.9091 45.6668 16.3621 45.852C16.815 46.0372 17.2266 46.3088 17.5733 46.651C17.9199 46.9933 18.1949 47.3997 18.3825 47.8469C18.5702 48.2941 18.6667 48.7734 18.6667 49.2575ZM34.3468 45.5714C33.6084 45.5714 32.8866 45.7876 32.2726 46.1926C31.6587 46.5977 31.1802 47.1734 30.8976 47.8469C30.615 48.5204 30.5411 49.2616 30.6852 49.9766C30.8292 50.6917 31.1848 51.3485 31.7069 51.864C32.229 52.3795 32.8942 52.7305 33.6184 52.8728C34.3426 53.015 35.0933 52.942 35.7755 52.663C36.4576 52.384 37.0407 51.9116 37.4509 51.3054C37.8612 50.6992 38.0801 49.9865 38.0801 49.2575C38.0801 48.7734 37.9836 48.2941 37.7959 47.8469C37.6083 47.3997 37.3333 46.9933 36.9867 46.651C36.64 46.3088 36.2284 46.0372 35.7755 45.852C35.3225 45.6668 34.837 45.5714 34.3468 45.5714ZM43.5405 23.3252L39.0395 38.8797C38.7243 39.9561 38.0641 40.9027 37.158 41.5775C36.252 42.2523 35.1488 42.619 34.0139 42.6225H15.2662C14.1314 42.619 13.0282 42.2523 12.1222 41.5775C11.2161 40.9028 10.556 39.9563 10.2406 38.8799L5.75205 23.3688C5.7433 23.3407 5.7351 23.3125 5.72744 23.2839L4.0704 17.5572H2.24001C1.64592 17.5572 1.07617 17.3241 0.656083 16.9094C0.236 16.4946 0 15.9321 0 15.3455C0 14.7589 0.236 14.1964 0.656083 13.7816C1.07617 13.3669 1.64592 13.1339 2.24001 13.1339H4.6335C5.44414 13.1364 6.2321 13.3983 6.87928 13.8803C7.52646 14.3623 7.99799 15.0384 8.2232 15.8073L9.58292 20.506H41.3867C41.7334 20.506 42.0754 20.5855 42.3857 20.7381C42.696 20.8908 42.9662 21.1125 43.175 21.3858C43.3838 21.6591 43.5255 21.9765 43.5889 22.313C43.6523 22.6496 43.6358 22.9961 43.5405 23.3252ZM38.4172 24.9293H10.863L14.5482 37.6645C14.5933 37.8183 14.6876 37.9535 14.817 38.0499C14.9465 38.1463 15.1041 38.1987 15.2662 38.1992H34.0139C34.1761 38.1987 34.3337 38.1463 34.4631 38.0499C34.5926 37.9535 34.6869 37.8182 34.732 37.6644L38.4172 24.9293Z" fill="#059669"/>
<path d="M26 24.1356C30.5 19.5656 35 15.4735 35 10.4257C35 5.37781 30.9706 1.28571 26 1.28571C21.0294 1.28571 17 5.37781 17 10.4257C17 15.4735 21.5 19.5656 26 24.1356Z" fill="#059669" stroke="white" stroke-width="2.57143" stroke-linecap="round" stroke-linejoin="round"/>
<path d="M26 15.1085C28.7615 15.1085 31 12.8984 31 10.1718C31 7.44535 28.7615 5.23511 26 5.23511C23.2385 5.23511 21 7.44535 21 10.1718C21 12.8984 23.2385 15.1085 26 15.1085Z" fill="white" stroke="#059669" stroke-width="5" stroke-linecap="round" stroke-linejoin="round"/>
</svg>
